<svg xmlns="http://www.w3.org/2000/svg" viewBox="0 0 100 100">
  <!-- Background circle -->
  <circle cx="50" cy="50" r="50" fill="#047857"/>
  
  <!-- Mosque dome -->
  <ellipse cx="50" cy="45" rx="18" ry="12" fill="#FFFFFF"/>
  
  <!-- Crescent moon on top of dome -->
  <path d="M 48 30 Q 42 33 48 36 Q 52 33 48 30 Z" fill="#FCD34D"/>
  
  <!-- Main building -->
  <rect x="35" y="45" width="30" height="25" rx="2" fill="#FFFFFF"/>
  
  <!-- Door -->
  <rect x="45" y="55" width="10" height="15" rx="5" fill="#047857"/>
  
  <!-- Left minaret -->
  <rect x="30" y="35" width="4" height="35" fill="#FFFFFF"/>
  <ellipse cx="32" cy="35" rx="3" ry="2" fill="#FFFFFF"/>
  <path d="M 31 32 Q 29 33.5 31 35 Q 33 33.5 31 32 Z" fill="#FCD34D"/>
  
  <!-- Right minaret -->
  <rect x="66" y="35" width="4" height="35" fill="#FFFFFF"/>
  <ellipse cx="68" cy="35" rx="3" ry="2" fill="#FFFFFF"/>
  <path d="M 67 32 Q 65 33.5 67 35 Q 69 33.5 67 32 Z" fill="#FCD34D"/>
  
  <!-- Stars -->
  <circle cx="20" cy="25" r="1.5" fill="#FCD34D"/>
  <circle cx="80" cy="30" r="1.5" fill="#FCD34D"/>
  <circle cx="75" cy="20" r="1" fill="#FCD34D"/>
</svg>
